<svg width="24" height="24" viewBox="0 0 24 24" fill="none" xmlns="http://www.w3.org/2000/svg">
<path fill-rule="evenodd" clip-rule="evenodd" d="M12 24C18.6274 24 24 18.6274 24 12C24 5.37258 18.6274 0 12 0C5.37258 0 0 5.37258 0 12C0 18.6274 5.37258 24 12 24ZM5.33333 6.48333C4.86389 6.48333 4.48333 6.86389 4.48333 7.33333C4.48333 7.80278 4.86389 8.18333 5.33333 8.18333H18.6667C19.1361 8.18333 19.5167 7.80278 19.5167 7.33333C19.5167 6.86389 19.1361 6.48333 18.6667 6.48333H5.33333ZM4.48333 12C4.48333 11.5306 4.86389 11.15 5.33333 11.15H18.6667C19.1361 11.15 19.5167 11.5306 19.5167 12C19.5167 12.4694 19.1361 12.85 18.6667 12.85H5.33333C4.86389 12.85 4.48333 12.4694 4.48333 12ZM5.33333 15.8167C4.86389 15.8167 4.48333 16.1972 4.48333 16.6667C4.48333 17.1361 4.86389 17.5167 5.33333 17.5167H12C12.4694 17.5167 12.85 17.1361 12.85 16.6667C12.85 16.1972 12.4694 15.8167 12 15.8167H5.33333Z" fill="black"/>
</svg>
