<svg width="24" height="24" viewBox="0 0 24 24" fill="none" xmlns="http://www.w3.org/2000/svg">
<path fill-rule="evenodd" clip-rule="evenodd" d="M2.8 0C1.2536 0 0 1.2536 0 2.8V21.2C0 22.7464 1.2536 24 2.8 24H21.2C22.7464 24 24 22.7464 24 21.2V2.8C24 1.2536 22.7464 0 21.2 0H2.8ZM5.33333 6.48333C4.86389 6.48333 4.48333 6.86389 4.48333 7.33333C4.48333 7.80278 4.86389 8.18333 5.33333 8.18333H18.6667C19.1361 8.18333 19.5167 7.80278 19.5167 7.33333C19.5167 6.86389 19.1361 6.48333 18.6667 6.48333H5.33333ZM4.48333 12C4.48333 11.5306 4.86389 11.15 5.33333 11.15H18.6667C19.1361 11.15 19.5167 11.5306 19.5167 12C19.5167 12.4694 19.1361 12.85 18.6667 12.85H5.33333C4.86389 12.85 4.48333 12.4694 4.48333 12ZM12 15.8167C11.5306 15.8167 11.15 16.1972 11.15 16.6667C11.15 17.1361 11.5306 17.5167 12 17.5167H18.6667C19.1361 17.5167 19.5167 17.1361 19.5167 16.6667C19.5167 16.1972 19.1361 15.8167 18.6667 15.8167H12Z" fill="black"/>
</svg>
